<?xml version="1.0" standalone="no"?>
<!DOCTYPE svg PUBLIC "-//W3C//DTD SVG 20010904//EN"
 "http://www.w3.org/TR/2001/REC-SVG-20010904/DTD/svg10.dtd">
<svg version="1.0" xmlns="http://www.w3.org/2000/svg"
 width="213.000000pt" height="251.000000pt" viewBox="0 0 213.000000 251.000000"
 preserveAspectRatio="xMidYMid meet">

<g transform="translate(0.000000,251.000000) scale(0.100000,-0.100000)"
fill="#000000" stroke="none">
<path d="M0 1255 l0 -1255 1065 0 1065 0 0 1255 0 1255 -1065 0 -1065 0 0
-1255z m1175 1127 c11 -29 23 -52 27 -52 4 0 8 21 10 47 2 27 8 48 16 51 11 3
12 -12 7 -79 -4 -46 -10 -88 -12 -92 -8 -14 -32 14 -49 59 -20 51 -34 43 -34
-19 0 -27 -4 -37 -12 -34 -9 3 -12 22 -10 58 6 132 23 149 57 61z m-123 -31
c18 -47 25 -78 19 -84 -6 -6 -13 -1 -20 12 -17 31 -59 28 -72 -6 -6 -17 -13
-23 -19 -17 -7 7 -4 39 7 93 15 70 20 81 36 79 14 -2 28 -25 49 -77z m-185 44
c18 -13 43 -80 43 -119 0 -18 -33 -41 -71 -50 -25 -6 -27 -3 -43 57 -9 34 -19
72 -22 84 -5 18 -1 23 27 32 19 5 36 10 39 10 3 1 15 -6 27 -14z m521 -11 c26
-18 27 -25 6 -93 -19 -65 -49 -83 -90 -56 -24 15 -26 21 -20 61 12 93 51 126
104 88z m-660 -105 c31 -33 51 -63 47 -69 -5 -8 -12 -7 -25 5 -24 22 -70 2
-70 -32 0 -29 -16 -30 -23 0 -11 44 -19 145 -13 156 10 15 26 4 84 -60z m897
1 c24 -26 13 -37 -17 -16 -12 9 -28 16 -35 16 -17 0 -16 -30 2 -54 21 -28 19
-60 -5 -81 -19 -17 -22 -18 -55 -2 -23 11 -35 24 -35 37 0 26 12 26 28 0 7
-11 19 -20 27 -20 24 0 29 27 11 55 -16 25 -21 66 -9 78 14 15 70 6 88 -13z
m-1038 -68 c18 -24 33 -52 33 -62 0 -20 -47 -70 -65 -70 -5 0 -31 31 -58 68
l-47 67 27 23 c40 32 71 25 110 -26z m1163 -27 c0 -28 -62 -165 -72 -159 -5 4
-8 14 -5 24 7 25 -33 62 -53 50 -21 -13 -30 -12 -30 3 0 13 126 97 147 97 7 0
13 -7 13 -15z m-1301 -73 c28 -26 51 -56 51 -65 0 -22 -43 -67 -63 -67 -20 0
-117 88 -117 106 0 22 10 17 62 -32 50 -47 64 -50 82 -20 9 15 3 25 -36 61
-45 41 -60 65 -39 65 5 0 32 -22 60 -48z m1401 -26 c0 -8 -9 -35 -20 -60 -10
-25 -17 -46 -14 -46 3 0 20 11 38 25 33 25 61 33 54 16 -1 -5 -31 -32 -66 -61
-75 -62 -93 -58 -62 14 28 66 25 73 -15 37 -38 -33 -55 -39 -54 -18 1 14 109
105 127 106 6 1 12 -5 12 -13z m-1512 -105 c34 -25 62 -51 62 -58 0 -7 -3 -13
-6 -13 -16 0 -134 94 -134 107 0 18 2 18 78 -36z m-78 -56 c0 -9 -10 -15 -26
-15 -42 0 -28 -40 24 -68 34 -19 46 -21 57 -12 18 15 19 37 3 42 -6 2 -8 9 -4
16 13 22 36 1 36 -34 0 -24 -7 -38 -24 -49 -23 -15 -27 -15 -68 6 -79 40 -93
63 -62 107 17 25 64 30 64 7z m1704 0 c42 -42 28 -76 -49 -114 -51 -26 -66
-23 -91 13 -22 34 -14 50 43 86 53 34 75 37 97 15z m-809 -127 c3 -13 30 -167
60 -343 31 -176 57 -324 59 -330 2 -5 22 27 45 73 l42 83 112 -3 c92 -2 112
-6 112 -18 0 -12 -19 -16 -101 -18 l-101 -3 -51 -109 c-49 -107 -74 -133 -86
-92 -3 9 -28 150 -56 312 -28 162 -54 304 -57 315 -4 12 -28 -65 -63 -203 -31
-122 -61 -227 -66 -232 -17 -17 -30 5 -78 140 -27 74 -52 139 -56 143 -4 5
-11 -4 -14 -20 -4 -15 -23 -79 -43 -141 l-35 -113 -102 3 c-82 2 -101 6 -101
18 0 12 17 16 86 18 l86 3 48 157 c49 160 62 187 81 174 6 -4 32 -69 59 -145
27 -75 52 -134 56 -130 3 5 30 105 59 223 62 251 65 260 85 260 8 0 17 -10 20
-22z m780 -828 c3 -5 1 -10 -4 -10 -6 0 -11 5 -11 10 0 6 2 10 4 10 3 0 8 -4
11 -10z m-1685 -4 c0 -3 -4 -8 -10 -11 -5 -3 -10 -1 -10 4 0 6 5 11 10 11 6 0
10 -2 10 -4z m1640 -76 c0 -5 -4 -10 -10 -10 -5 0 -10 5 -10 10 0 6 5 10 10
10 6 0 10 -4 10 -10z m-1550 -80 c0 -5 -4 -10 -10 -10 -5 0 -10 5 -10 10 0 6
5 10 10 10 6 0 10 -4 10 -10z m1500 0 c0 -5 -4 -10 -10 -10 -5 0 -10 5 -10 10
0 6 5 10 10 10 6 0 10 -4 10 -10z m-1440 -70 c0 -5 -2 -10 -4 -10 -3 0 -8 5
-11 10 -3 6 -1 10 4 10 6 0 11 -4 11 -10z m70 -60 c0 -5 -4 -10 -10 -10 -5 0
-10 5 -10 10 0 6 5 10 10 10 6 0 10 -4 10 -10z m1240 0 c0 -5 -2 -10 -4 -10
-3 0 -8 5 -11 10 -3 6 -1 10 4 10 6 0 11 -4 11 -10z m-70 -50 c0 -5 -5 -10
-11 -10 -5 0 -7 5 -4 10 3 6 8 10 11 10 2 0 4 -4 4 -10z m-1025 -50 c3 -5 1
-10 -4 -10 -6 0 -11 5 -11 10 0 6 2 10 4 10 3 0 8 -4 11 -10z m950 0 c3 -5 1
-10 -4 -10 -6 0 -11 5 -11 10 0 6 2 10 4 10 3 0 8 -4 11 -10z m-80 -40 c3 -5
1 -10 -4 -10 -6 0 -11 5 -11 10 0 6 2 10 4 10 3 0 8 -4 11 -10z m-785 -4 c0
-3 -4 -8 -10 -11 -5 -3 -10 -1 -10 4 0 6 5 11 10 11 6 0 10 -2 10 -4z m80 -36
c0 -5 -4 -10 -10 -10 -5 0 -10 5 -10 10 0 6 5 10 10 10 6 0 10 -4 10 -10z
m620 0 c0 -5 -4 -10 -10 -10 -5 0 -10 5 -10 10 0 6 5 10 10 10 6 0 10 -4 10
-10z m-535 -20 c3 -5 1 -10 -4 -10 -6 0 -11 5 -11 10 0 6 2 10 4 10 3 0 8 -4
11 -10z m450 0 c3 -5 1 -10 -4 -10 -6 0 -11 5 -11 10 0 6 2 10 4 10 3 0 8 -4
11 -10z m-85 -20 c0 -5 -4 -10 -10 -10 -5 0 -10 5 -10 10 0 6 5 10 10 10 6 0
10 -4 10 -10z m-180 -4 c0 -3 -4 -8 -10 -11 -5 -3 -10 -1 -10 4 0 6 5 11 10
11 6 0 10 -2 10 -4z m90 -6 c0 -5 -4 -10 -10 -10 -5 0 -10 5 -10 10 0 6 5 10
10 10 6 0 10 -4 10 -10z m-800 -270 c25 0 33 -15 26 -46 -5 -17 -13 -24 -31
-24 -24 0 -25 2 -24 63 1 34 4 50 6 35 3 -19 10 -28 23 -28z m1550 -10 c0 -57
-1 -60 -25 -60 -18 0 -26 7 -31 24 -7 31 1 46 27 46 14 0 19 7 19 25 0 14 2
25 5 25 3 0 5 -27 5 -60z m140 0 c0 -52 -2 -60 -19 -60 -10 0 -24 7 -31 15
-16 19 -3 55 21 55 14 0 19 7 19 25 0 14 2 25 5 25 3 0 5 -27 5 -60z m-1852
43 c-14 -3 -18 -16 -20 -56 l-2 -52 -3 52 c-3 38 -8 53 -21 56 -9 3 1 5 23 5
22 0 32 -2 23 -5z m536 -35 c8 -6 7 -8 -1 -8 -15 0 -17 -46 -3 -53 6 -3 5 -4
-2 -3 -8 2 -14 22 -15 57 -1 30 1 45 4 34 3 -11 10 -23 17 -27z m634 -6 c-12
-5 -10 -49 2 -55 6 -3 5 -4 -2 -3 -8 2 -14 23 -16 57 -2 50 -1 52 11 29 7 -14
9 -26 5 -28z m-1118 -47 c8 0 18 13 22 30 6 29 6 29 5 -5 -2 -30 -5 -35 -27
-35 -22 0 -25 5 -27 35 -1 34 -1 34 5 5 4 -17 14 -30 22 -30z m170 26 c0 -17
-4 -33 -10 -36 -6 -4 -10 8 -10 29 0 20 5 36 10 36 6 0 10 -13 10 -29z m65 9
c0 -8 -11 -17 -25 -21 l-25 -6 25 -12 25 -11 -25 3 c-25 2 -37 25 -26 53 7 19
51 14 51 -6z m71 -15 c1 -28 1 -28 -3 -2 -5 34 -33 37 -33 3 0 -14 -4 -28 -10
-31 -6 -4 -10 8 -10 30 0 34 2 36 28 33 22 -2 27 -8 28 -33z m77 21 c7 -18 -1
-26 -25 -26 -26 0 -22 -18 5 -23 19 -5 19 -5 -3 -4 -25 2 -37 25 -26 53 7 18
42 18 49 0z m43 7 c-19 -5 -18 -6 4 -23 26 -20 19 -40 -13 -39 -20 1 -20 2 3
8 l25 7 -22 12 c-13 7 -23 19 -23 27 0 9 9 15 23 14 19 -1 19 -2 3 -6z m128
-9 c3 -9 6 -25 6 -35 0 -16 -6 -20 -27 -17 -35 4 -37 30 -3 39 l25 6 -25 11
c-23 10 -23 11 -4 11 12 1 25 -6 28 -15z m49 9 c-7 -2 -13 -15 -13 -28 0 -13
-4 -27 -10 -30 -6 -4 -10 8 -10 29 0 31 3 36 23 35 12 0 16 -3 10 -6z m105
-15 c2 -13 -3 -18 -17 -18 -28 0 -27 -17 2 -23 21 -4 21 -4 1 -6 -28 -1 -47
23 -39 49 8 26 48 24 53 -2z m42 13 l-25 -7 23 -12 c12 -7 22 -19 22 -27 0 -9
-9 -15 -22 -14 -17 1 -19 2 -5 6 22 6 22 15 -3 31 -25 15 -17 32 13 31 20 -1
20 -2 -3 -8z m124 -7 c9 -24 7 -44 -4 -44 -5 0 -10 11 -10 25 0 38 -28 32 -33
-7 -4 -32 -4 -32 -5 5 -2 33 1 37 22 37 13 0 27 -7 30 -16z m51 -44 c8 0 15
13 18 33 l4 32 1 -33 c1 -21 -3 -35 -13 -38 -22 -9 -45 15 -44 45 1 24 1 24
10 -6 5 -18 16 -33 24 -33z m98 46 c7 -18 -1 -26 -25 -26 -26 0 -22 -18 5 -23
19 -5 19 -5 -3 -4 -25 2 -37 25 -26 53 7 18 42 18 49 0z m43 7 c-19 -5 -18 -6
4 -23 26 -20 19 -40 -13 -39 -20 1 -20 2 3 8 l25 7 -22 12 c-13 7 -23 19 -23
27 0 9 9 15 23 14 19 -1 19 -2 3 -6z m107 -1 c-6 -4 -13 -21 -16 -37 -4 -27
-4 -27 -6 8 -1 29 3 37 17 37 11 0 13 -3 5 -8z m71 -8 c3 -9 6 -25 6 -35 0
-16 -6 -20 -27 -17 -35 4 -37 30 -3 39 l25 6 -25 11 c-23 10 -23 11 -4 11 12
1 25 -6 28 -15z m111 -4 c7 -23 -10 -50 -30 -50 -8 0 -16 -8 -18 -17 -3 -10
-5 6 -6 35 -1 49 0 52 23 52 16 0 27 -7 31 -20z m43 8 c-9 -7 -19 -24 -21 -38
-3 -18 -5 -14 -6 13 -1 32 2 37 21 37 19 0 20 -1 6 -12z m29 -40 c-2 -13 -4
-5 -4 17 -1 22 1 32 4 23 2 -10 2 -28 0 -40z m78 41 c4 -5 4 -21 1 -35 -5 -19
-12 -25 -29 -22 -37 5 -36 68 2 68 11 0 23 -5 26 -11z m48 4 c-7 -2 -13 -15
-13 -28 0 -13 -4 -27 -10 -30 -6 -4 -10 8 -10 29 0 31 3 36 23 35 12 0 16 -3
10 -6z m37 -22 c0 -17 -4 -33 -10 -36 -6 -4 -10 8 -10 29 0 20 5 36 10 36 6 0
10 -13 10 -29z m138 -7 c3 -28 1 -31 -25 -30 -15 1 -27 4 -25 9 1 4 2 12 2 17
0 6 9 10 20 10 27 0 25 17 -2 23 -20 5 -20 5 2 4 20 -2 26 -8 28 -33z"/>
<path d="M997 2369 c-11 -39 -8 -49 13 -49 23 0 25 15 6 49 l-13 23 -6 -23z"/>
<path d="M808 2375 c-9 -10 24 -125 36 -125 29 1 39 18 31 56 -4 21 -11 47
-16 56 -9 17 -39 24 -51 13z"/>
<path d="M1341 2371 c-14 -9 -40 -91 -34 -108 7 -20 41 -15 52 6 19 35 24 98
9 104 -8 3 -20 2 -27 -2z"/>
<path d="M668 2265 c4 -37 8 -40 31 -26 12 8 12 13 -3 35 -23 36 -33 33 -28
-9z"/>
<path d="M500 2225 c-10 -12 -6 -23 21 -61 38 -52 47 -57 62 -32 12 18 -1 52
-35 88 -22 24 -31 25 -48 5z"/>
<path d="M1679 2141 c-22 -18 -23 -21 -8 -36 14 -14 17 -12 32 20 19 39 11 44
-24 16z"/>
<path d="M1878 1885 c-68 -46 -39 -83 34 -43 28 15 43 30 43 43 0 30 -34 29
-77 0z"/>
<path d="M322 148 c2 -12 10 -23 18 -23 22 0 19 39 -3 43 -15 3 -18 -1 -15
-20z"/>
<path d="M1843 154 c-7 -18 11 -39 26 -30 17 11 13 46 -4 46 -9 0 -18 -7 -22
-16z"/>
<path d="M1990 145 c0 -16 6 -25 15 -25 9 0 15 9 15 25 0 16 -6 25 -15 25 -9
0 -15 -9 -15 -25z"/>
<path d="M420 160 c0 -5 9 -10 21 -10 11 0 17 5 14 10 -3 6 -13 10 -21 10 -8
0 -14 -4 -14 -10z"/>
<path d="M570 160 c0 -5 7 -10 15 -10 8 0 15 5 15 10 0 6 -7 10 -15 10 -8 0
-15 -4 -15 -10z"/>
<path d="M740 130 c0 -5 6 -10 14 -10 8 0 18 5 21 10 3 6 -3 10 -14 10 -12 0
-21 -4 -21 -10z"/>
<path d="M900 160 c0 -5 7 -10 15 -10 8 0 15 5 15 10 0 6 -7 10 -15 10 -8 0
-15 -4 -15 -10z"/>
<path d="M1210 160 c0 -5 7 -10 15 -10 8 0 15 5 15 10 0 6 -7 10 -15 10 -8 0
-15 -4 -15 -10z"/>
<path d="M1430 130 c0 -5 6 -10 14 -10 8 0 18 5 21 10 3 6 -3 10 -14 10 -12 0
-21 -4 -21 -10z"/>
<path d="M1540 145 c0 -16 6 -25 15 -25 9 0 15 9 15 25 0 16 -6 25 -15 25 -9
0 -15 -9 -15 -25z"/>
<path d="M1692 148 c2 -12 10 -23 18 -23 22 0 19 39 -3 43 -15 3 -18 -1 -15
-20z"/>
<path d="M1920 130 c0 -5 4 -10 9 -10 6 0 13 5 16 10 3 6 -1 10 -9 10 -9 0
-16 -4 -16 -10z"/>
</g>
</svg>
