<?xml version="1.0" standalone="no"?>
<!DOCTYPE svg PUBLIC "-//W3C//DTD SVG 20010904//EN"
 "http://www.w3.org/TR/2001/REC-SVG-20010904/DTD/svg10.dtd">
<svg version="1.0" xmlns="http://www.w3.org/2000/svg"
 width="920.000000pt" height="881.000000pt" viewBox="0 0 920.000000 881.000000"
 preserveAspectRatio="xMidYMid meet">

<g transform="translate(0.000000,881.000000) scale(0.100000,-0.100000)"
fill="#000000" stroke="none">
<path d="M4420 8794 c-178 -23 -533 -106 -750 -176 -256 -83 -482 -187 -648
-298 -113 -75 -248 -201 -301 -281 -147 -220 -206 -655 -181 -1331 l12 -308
-36 -49 c-123 -167 -175 -432 -147 -744 27 -288 116 -509 271 -672 57 -59 58
-62 79 -163 71 -334 254 -687 519 -1000 l53 -62 -21 -158 c-12 -86 -26 -184
-33 -217 l-12 -60 -185 -57 c-285 -89 -417 -163 -512 -289 -68 -90 -102 -182
-114 -315 l-6 -69 123 -1 c136 -1 207 -15 324 -66 343 -148 637 -484 894
-1019 123 -256 251 -600 251 -671 0 -56 -25 -120 -61 -156 -99 -99 -416 -265
-546 -287 -53 -8 -121 20 -152 64 -32 45 -71 167 -71 223 0 95 53 150 241 247
68 35 125 65 127 66 6 5 -84 220 -152 360 -218 451 -465 738 -709 822 -146 51
-303 28 -439 -64 -179 -120 -267 -343 -268 -678 0 -250 56 -578 157 -916 l25
-86 75 29 c178 69 308 85 378 45 33 -18 48 -39 85 -111 39 -77 45 -96 45 -152
0 -58 -3 -65 -35 -99 -19 -19 -57 -47 -85 -60 l-50 -24 3017 -1 3017 0 -5 32
c-108 785 -280 1524 -451 1938 -55 135 -138 289 -195 365 -89 117 -259 245
-501 378 -120 66 -366 182 -371 176 -2 -2 5 -44 16 -94 41 -189 25 -463 -41
-710 l-29 -106 93 -92 c79 -79 99 -106 139 -187 75 -154 98 -288 76 -435 -42
-278 -236 -509 -506 -601 -113 -39 -276 -45 -393 -15 -218 55 -394 197 -491
396 -57 116 -74 190 -74 320 0 176 50 316 163 458 132 166 354 277 554 277
l65 0 21 80 c57 209 71 419 37 550 -59 231 -248 401 -536 483 l-85 25 -27 163
c-15 90 -32 216 -39 279 l-12 116 65 84 c222 288 372 598 427 881 19 100 23
108 66 155 142 153 240 380 275 640 18 135 8 425 -19 531 -26 103 -70 202
-120 268 l-39 51 13 174 c41 555 23 1004 -50 1290 -48 184 -165 373 -323 521
-120 112 -230 171 -383 205 -99 22 -322 22 -451 0 l-97 -16 -128 59 c-260 118
-358 142 -603 146 -102 2 -201 1 -220 -1z m1035 -1713 l420 -278 3 -507 2
-508 37 7 c80 15 103 47 132 188 26 131 36 148 93 166 57 17 112 4 152 -38
112 -117 112 -474 1 -709 -40 -85 -117 -167 -186 -199 l-46 -22 -7 -83 c-34
-388 -210 -722 -576 -1089 -168 -169 -300 -281 -379 -323 -174 -91 -441 -128
-652 -91 -75 13 -221 51 -273 71 -18 7 -18 4 4 -26 42 -59 150 -169 214 -216
301 -227 743 -256 1111 -74 54 27 101 47 103 45 8 -7 42 -258 48 -350 26 -393
-349 -939 -958 -1394 l-97 -73 -77 63 c-449 366 -754 773 -834 1113 -38 158
-27 311 59 836 l49 295 -97 100 c-331 342 -516 702 -553 1077 l-12 120 -45 21
c-148 69 -251 273 -267 530 -18 287 77 460 230 417 25 -7 50 -18 54 -24 5 -6
14 -44 21 -84 15 -96 56 -197 90 -221 15 -11 43 -22 64 -26 l37 -7 2 538 3
538 140 17 c494 60 1029 215 1440 418 66 33 122 60 125 60 3 0 194 -125 425
-278z"/>
<path d="M1865 2782 c-392 -203 -562 -336 -676 -529 -212 -359 -419 -1106
-553 -1998 -14 -93 -28 -182 -31 -197 l-5 -28 630 0 630 0 -16 37 c-29 68
-104 295 -139 423 -163 597 -177 1132 -38 1485 69 176 187 337 302 416 l50 34
1 140 c0 77 7 176 15 220 8 44 15 81 15 83 0 8 -33 -7 -185 -86z"/>
<path d="M6527 1700 c-94 -24 -173 -90 -216 -180 -53 -115 -26 -262 65 -354
122 -122 326 -122 448 0 21 22 50 64 65 94 53 115 26 262 -65 354 -73 73 -201
110 -297 86z"/>
</g>
</svg>
