<?xml version="1.0" standalone="no"?>
<!DOCTYPE svg PUBLIC "-//W3C//DTD SVG 20010904//EN"
 "http://www.w3.org/TR/2001/REC-SVG-20010904/DTD/svg10.dtd">
<svg version="1.0" xmlns="http://www.w3.org/2000/svg"
 width="512.000000pt" height="512.000000pt" viewBox="0 0 512.000000 512.000000"
 preserveAspectRatio="xMidYMid meet">

<g transform="translate(0.000000,512.000000) scale(0.100000,-0.100000)"
fill="#000000" stroke="none">
<path d="M2395 4949 c-188 -22 -409 -98 -570 -194 -412 -246 -660 -653 -700
-1146 l-7 -87 -117 -4 c-98 -3 -125 -8 -171 -30 -201 -93 -249 -356 -94 -512
67 -67 130 -89 266 -94 l117 -4 3 138 3 138 185 -217 c196 -230 222 -252 269
-226 36 20 54 60 41 93 -13 36 -374 457 -412 480 -25 16 -36 17 -59 9 l-29
-11 0 77 0 77 113 12 c477 50 844 348 912 740 7 40 15 75 18 78 2 3 8 -15 11
-40 19 -127 153 -297 326 -411 326 -217 787 -343 1363 -371 l137 -7 0 43 0 42
123 -3 c109 -4 128 -7 179 -32 65 -32 121 -90 152 -156 16 -35 21 -66 21 -131
0 -73 -4 -93 -28 -142 -32 -65 -90 -121 -156 -151 -37 -17 -71 -22 -168 -25
l-123 -4 0 -38 c0 -36 -2 -39 -28 -38 -15 1 -37 -4 -47 -10 -13 -6 -88 -159
-210 -423 -181 -393 -190 -411 -196 -373 -3 21 -7 34 -8 27 -2 -22 -43 -36
-180 -64 -141 -28 -170 -27 -197 9 -20 26 -17 79 6 102 22 22 19 21 184 54
125 25 156 23 182 -12 11 -14 13 7 13 128 0 121 -2 142 -13 128 -26 -35 -57
-37 -182 -12 -165 33 -162 32 -184 54 -23 23 -26 76 -6 102 26 35 57 37 182
12 165 -33 162 -32 184 -54 20 -20 20 -19 20 115 0 74 -3 135 -7 135 -5 0
-221 36 -480 79 l-473 79 -473 -79 c-259 -43 -475 -79 -479 -79 -5 0 -8 -61
-8 -135 0 -134 0 -135 20 -115 22 22 19 21 184 54 125 25 156 23 182 -12 20
-26 17 -79 -6 -102 -22 -22 -19 -21 -184 -54 -125 -25 -156 -23 -182 12 -11
14 -13 -7 -13 -128 0 -121 2 -142 13 -128 26 35 57 37 182 12 165 -33 162 -32
184 -54 23 -23 26 -76 6 -102 -27 -36 -56 -37 -197 -9 -137 28 -178 42 -180
64 -1 7 -5 -6 -8 -27 -6 -38 -15 -20 -196 373 -122 264 -197 417 -210 423 -53
29 -115 -2 -115 -58 0 -45 417 -952 445 -966 10 -6 32 -11 48 -10 18 0 57 -18
110 -53 45 -29 117 -70 160 -91 l79 -39 -4 -140 c-4 -158 -17 -200 -83 -273
-63 -70 -107 -85 -545 -177 -223 -47 -436 -94 -475 -106 -230 -69 -426 -240
-536 -467 -29 -58 -34 -80 -37 -160 l-4 -92 2321 0 2321 0 0 81 c0 60 -6 93
-22 132 -80 192 -235 360 -418 452 -95 48 -155 64 -590 156 -459 97 -502 111
-565 181 -66 73 -79 115 -83 273 l-4 140 79 39 c43 21 115 62 160 91 53 35 92
53 110 53 16 -1 38 4 48 10 13 6 88 159 210 423 l190 412 6 -209 c8 -242 22
-313 93 -459 133 -276 400 -459 714 -490 l73 -7 -3 1028 -3 1029 -23 80 c-71
256 -239 462 -467 572 -137 66 -221 84 -416 90 l-167 6 -21 38 c-12 21 -52 77
-90 126 -212 275 -533 468 -878 528 -112 20 -314 27 -418 14z m-180 -3468
c145 -33 324 -45 473 -32 70 6 168 21 217 32 50 12 100 23 113 26 21 5 22 3
22 -73 1 -161 40 -270 139 -376 76 -83 157 -120 348 -160 123 -25 150 -34 142
-45 -20 -23 -231 -121 -351 -162 -474 -162 -1042 -162 -1516 0 -117 40 -332
140 -351 163 -8 10 25 20 142 44 192 40 271 77 350 162 95 102 137 219 137
378 0 72 1 74 23 69 12 -3 63 -14 112 -26z"/>
<path d="M3902 3353 c-45 -39 -412 -544 -412 -567 0 -13 9 -35 21 -50 25 -31
76 -35 107 -8 45 38 412 543 412 566 0 13 -9 35 -21 50 -25 31 -76 35 -107 9z"/>
<path d="M1930 3258 c-48 -25 -90 -89 -90 -138 0 -14 10 -46 23 -70 24 -48 88
-90 137 -90 49 0 113 42 138 90 12 24 22 56 22 70 0 14 -10 46 -22 70 -25 48
-89 90 -138 90 -14 0 -46 -10 -70 -22z"/>
<path d="M3050 3258 c-48 -25 -90 -89 -90 -138 0 -14 10 -46 23 -70 24 -48 88
-90 137 -90 14 0 46 10 70 23 48 24 90 88 90 137 0 49 -42 113 -90 138 -24 12
-56 22 -70 22 -14 0 -46 -10 -70 -22z"/>
</g>
</svg>
